<?xml version="1.0" encoding="utf-8"?>
<!-- Generator: Adobe Illustrator 14.0.0, SVG Export Plug-In . SVG Version: 6.00 Build 43363)  -->
<!DOCTYPE svg PUBLIC "-//W3C//DTD SVG 1.1//EN" "http://www.w3.org/Graphics/SVG/1.1/DTD/svg11.dtd">
<svg version="1.1" id="Reiki" xmlns="http://www.w3.org/2000/svg" xmlns:xlink="http://www.w3.org/1999/xlink" x="0px" y="0px"
	 width="400px" height="800px" viewBox="0 0 400 800" enable-background="new 0 0 400 800" xml:space="preserve">
<g>
	<path fill-rule="evenodd" clip-rule="evenodd" d="M211.806,22.692c9.298,1.282,32.12,4.11,30.914,14.101
		c-0.869,7.217-17.799,6.287-26.033,7.051c-11.3,1.048-19.998,2.489-29.286,3.796c2.588,8.096,12.974,13.047,10.305,28.202
		c16.611-1.763,34.439-4.564,51.523-7.05c17.132-2.492,34.487-2.863,47.184-10.847c8.735,3.845,16.509,6.701,25.49,11.932
		c4.963,2.889,19.863,11.583,18.441,18.982c-0.911,4.732-10.396,4.617-15.729,5.966c-17.452,4.415-39.129,17.661-56.945,21.694
		c-1.959-3.784,3.085-6.497,5.423-9.22c2.431-2.832,5.115-6.11,7.593-9.22c3.219-4.038,13.998-15.287,12.474-20.067
		c-1.728-5.422-14.774-1.506-21.693-0.542c-24.373,3.397-49.176,6.899-73.218,9.763c-0.877,23.137-1.453,49.427-3.796,72.675
		c-0.776,7.7-1.76,17.301-7.593,17.898c-6.956,0.711-8.893-9.475-9.762-15.187c-3.393-22.31,0.382-49.821-2.169-72.132
		c-29.059,3.482-56.041,9.041-87.861,9.762c4.633,13.004-1.693,50.105-18.44,46.642c-5.628-1.164-10.016-13.638-8.135-23.32
		c0.554-2.852,3.584-6.57,5.423-10.306c4.896-9.946,7.578-23.188,9.763-35.795c4.811,0.974,4.28,7.291,5.966,11.39
		c31.864,2.146,61.42-6.733,91.657-9.762c-0.32-11.251-2.048-21.093-6.509-28.202c-5.168,0.995-10.416,1.375-16.27,2.711
		c-4.928,1.125-10.853,4.517-14.644,4.339c-2.597-0.122-5.676-2.848-8.135-4.339c-2.417-1.465-5.721-2.482-5.966-4.881
		c0.925-3.6,5.787-3.271,8.677-3.796c10.05-1.826,19.938-3.898,30.372-5.966c14.04-2.784,29.405-4.404,40.134-8.135
		C205.564,29.226,209.264,25.893,211.806,22.692z"/>
	<path fill-rule="evenodd" clip-rule="evenodd" d="M258.449,121.399c-12.351,7.236-25.193-0.844-34.712-7.05
		c-3.132-2.042-6.387-4.216-9.22-6.508c-2.854-2.309-7.288-4.507-6.508-8.135c8.197-2.468,19.514-1.819,29.829-2.169
		C246.145,104.056,257.269,107.755,258.449,121.399z"/>
	<path fill-rule="evenodd" clip-rule="evenodd" d="M153.232,130.077c-16.479,4.026-29.675-5.074-38.507-13.559
		c-1.73-1.662-5.418-4.256-3.796-6.508c2.289-3.077,7.264-1.476,10.847-1.627c5.563-0.234,12.05-2.201,17.355-1.084
		C146.533,108.855,154.729,120.932,153.232,130.077z"/>
	<path fill-rule="evenodd" clip-rule="evenodd" d="M255.194,157.737c-8.484,4.961-21.421-0.196-29.83-5.423
		c-6.672-4.148-14.169-9.262-16.271-15.186c1.026-0.06,0.377-1.794,1.627-1.627c10.567,2.592,24.491,0.3,33.626,3.796
		C251.281,141.95,255.465,149.538,255.194,157.737z"/>
	<path fill-rule="evenodd" clip-rule="evenodd" d="M154.317,167.499c-16.574,7.201-37.556-12.292-45.558-21.694
		c2.59-2.986,8.438-2.758,13.559-3.254c5.841-0.565,12.191-0.33,16.813-1.627C146.804,146.605,157.628,154.393,154.317,167.499z"/>
	<path fill-rule="evenodd" clip-rule="evenodd" d="M112.014,192.99c15.571-3.536,33.563-5.745,51.523-8.677
		c22.484-3.672,47.832-6.522,62.912-15.187c6.188,1.265,12.747,1.391,18.44,3.255c3.646,1.194,12.062,4.442,10.848,10.847
		c-1.34,7.066-21.447,5.183-31.458,5.966c-30.216,2.362-55.173,5.507-82.979,10.847c-5.567,1.069-11.091,3.557-15.186,3.254
		C120.207,202.858,111.739,196.328,112.014,192.99z"/>
	<path fill-rule="evenodd" clip-rule="evenodd" d="M213.975,224.446c0.862,3.302,4.872,8.142,6.509,12.474
		c-3.424,21.162-4.114,45.057-5.966,67.793c10.062-0.511,21.145-1.286,32.541-2.169c10.742-0.832,22.549-0.102,31.457-2.711
		c4.007-1.174,7.904-5.525,11.389-5.966c4.964-0.627,18.036,5.055,22.778,7.05c6.066,2.552,15.92,8.096,15.186,14.644
		c-0.436,3.896-6.628,6.072-10.305,6.508c-9.543,1.132-20.019-1.831-30.913-2.712c-68.933-5.578-139.574,3.759-197.958,16.271
		c-4.94,1.058-10.257,3.524-13.016,3.254c-3.236-0.317-8-4.677-10.848-6.508c-3.585-2.306-7.816-4.374-9.22-7.05
		c2.112-3.496,7.268-3.332,10.847-3.796c28.622-3.718,60.343-7.753,90.03-10.848c-2.796-25.73,1.392-60.1-7.051-79.183
		c-6.982,1.081-14.646,1.959-22.779,3.254c-7.504,1.195-16.076,4.223-22.236,3.796c-3.061-0.212-7.247-2.32-10.305-3.796
		c-2.913-1.406-6.809-2.957-7.593-5.424c1.103-3.217,5.721-2.967,8.135-3.254c43.62-5.188,88.25-10.319,132.333-15.729
		c13.214-1.622,23.497-2.667,30.915-9.762c10.432,0.606,34.273,4.331,31.456,16.27c-1.737,7.368-26.038,5.316-36.337,5.424
		C238.987,222.423,224.874,223.86,213.975,224.446z M171.13,228.785c4.639,5.392,3.644,12.813,3.254,21.693
		c-0.786,17.871-0.296,39.066-0.542,56.947c7.249,0.018,13.304-1.159,20.609-1.085c1.262-13.289,0.969-25.765,1.627-39.59
		c0.831-17.455,3.341-31.089-5.424-39.05C183.495,227.41,177.381,228.167,171.13,228.785z"/>
	<path fill-rule="evenodd" clip-rule="evenodd" d="M281.227,259.156c-18.454,13.001-36.765,29.04-55.862,39.591
		c-1.176-4.979,3.786-9.078,6.509-13.016c5.828-8.43,10.689-16.319,16.813-26.033c5.032-7.98,10.35-13.387,7.052-25.49
		C266.154,231.964,280.428,247.332,281.227,259.156z"/>
	<path fill-rule="evenodd" clip-rule="evenodd" d="M121.234,265.122c3.272,7.599,10.929,18.033,10.305,29.288
		c-0.557,10.03-8.563,8.831-14.644,3.796c-10.189-8.434-20.818-27.048-26.033-37.422
		C99.408,259.656,109.069,266.304,121.234,265.122z"/>
	<path fill-rule="evenodd" clip-rule="evenodd" d="M107.133,469.046c7.313,1.457,14.417,2.594,20.609,6.508
		c4.95,3.13,12.327,11.195,11.932,16.813c-0.495,7.029-13.295,14.291-16.271,20.068c17.635-3.128,35.952-8.15,52.065-13.561
		c12.028-4.036,21.043-7.276,28.202-15.728c8.436,0.862,33.097-0.171,33.626,9.762c0.442,8.305-16.061,10.164-23.864,11.934
		c-20.498,4.647-38.149,8.67-57.488,14.101c-9.521,2.674-19.445,7.384-27.66,8.136c-4.994,0.456-12.018-1.812-15.729-1.085
		c-4.858,0.951-9.994,7.888-13.559,10.847c-4.899,4.066-10.096,7.488-14.101,10.305c-10.996,7.729-19.819,14.211-30.372,17.354
		c-1.993-4.47,3.852-6.893,5.966-9.22c15.662-17.246,32.418-36.39,44.473-59.116c1.767-3.331,4.873-9.321,4.881-11.932
		C109.862,478.482,99.877,473.167,107.133,469.046z"/>
	<path fill-rule="evenodd" clip-rule="evenodd" d="M187.943,525.451c5.642,0.61,11.678,2.083,16.812,3.796
		c9.633,3.21,16.901,11.49,2.17,15.186c-26.208,6.575-50.049,10.441-74.302,18.439c-4.171,1.376-8.675,3.637-11.389,3.797
		c-7.885,0.462-19.188-6.004-22.236-7.593c0.478-4.018,5.531-3.182,8.135-3.797c19.822-4.685,45.326-10.971,63.998-18.439
		C177.717,534.204,183.279,530.27,187.943,525.451z"/>
	<path fill-rule="evenodd" clip-rule="evenodd" d="M244.347,548.229c5.146,1.858,13.738,4.247,22.237,8.135
		c5.895,2.696,15.771,7.771,15.728,13.559c-0.044,5.88-10.072,8.525-14.643,13.016c-15.082,14.822-21.115,50.626-18.983,82.438
		c2.013,30.01,19.44,52.381,37.965,66.71c6.615,5.117,13.509,10.255,21.151,13.559c3.591,1.553,11.53,4.146,15.728,3.254
		c6.6-1.4,10.906-14.854,13.559-21.151c1.836-4.352,3.482-8.496,4.883-12.474c1.397-3.972,1.515-9.127,5.424-11.932
		c2.997,3.071,1.627,8.425,1.627,12.474c0,12.788-0.94,28.371,1.627,40.134c1.509,6.919,10.215,18.165,5.423,26.574
		c-5.214,9.153-28.077,1.8-35.796-1.085c-11.244-4.201-22.364-8.891-30.913-14.101c-18.618-11.347-33.064-29.437-43.389-46.641
		c-11.745-19.578-19.859-43.068-18.982-71.049c0.893-28.424,4.542-54.017,10.848-78.099
		c-41.674,12.925-89.083,29.419-132.333,45.016c-6.516,2.349-12.995,6.065-18.44,6.509c-5.651,0.46-11.574-1.775-16.813-3.797
		c-4.563-1.76-10.764-3.159-12.474-7.593c1.982-3.188,7.671-2.778,11.932-3.796c44.496-10.632,87.945-24.731,130.164-39.593
		C215.775,562.699,233.24,557.776,244.347,548.229z"/>
	<path fill-rule="evenodd" clip-rule="evenodd" d="M155.402,689.239c14.442,7.697,23.084,15.168,33.625,29.288
		c5.613,7.519,10.448,14.135,11.39,22.236c2.241,19.29-13.03,10.921-20.609,5.423c-15.09-10.947-25.589-25.254-39.592-36.337
		c-20.583,19.749-42.163,41.111-69.963,54.776c-3.163,1.555-8.119,5.035-11.932,2.17c0.681-4.179,5.356-5.747,8.135-8.136
		c21.047-18.091,41.498-39.655,57.489-63.453c-8.174-7.528-17.298-15.159-26.033-22.78c-2.633-2.297-6.6-4.544-7.051-8.135
		c2.906-2.818,7.644,0.494,10.847,1.627c10.708,3.788,23.262,8.576,33.083,13.559c8.465-10.714,16.45-23.941,23.321-38.507
		c2.253-4.776,5.406-10.943,5.423-14.643c0.028-6.004-10.567-15.865-2.169-18.439c9.68,4.327,30.214,8.991,31.999,21.693
		c1.659,11.81-10.717,23.868-16.813,31.998C168.569,672.229,161.628,681.308,155.402,689.239z"/>
</g>
</svg>
